<svg xmlns="http://www.w3.org/2000/svg" viewBox="0 0 61 234"><style>.a{fill:#333}@media (prefers-color-scheme:dark){.a{fill:#eee}}</style><path fill-rule="evenodd" d="M50.7 3.3c7.7 5 11.6 15.3 6 26-4.2 8-10.2 17.5-16.4 27.3L39 59 27.4 77.6c1.5 11 3.3 20.9 5.2 32.8 2.5-1.4 6.6-3.7 9-4.7 2-.9 4.2-1.7 6.3-2 2-.3 4.7-.4 7 1 3.6 2.2 5.4 5.6 6 9.3.4 3.5-.2 7.4-1.3 11.3a132 132 0 0 1-12.4 27c-1.7 3-5 8.8-7 11.9 1 7.5 1.8 11.9 2.3 18.6.7 9.7 1.4 18.6.5 25.9-.8 7-2.3 13.6-6.2 17.9-8.3 8.8-18.8 9.2-26.5 4.1a19.2 19.2 0 0 1-6-26A456.1 456.1 0 0 1 22.1 175l11.5-18.6c-1.5-11-3.3-20.9-5.2-32.8-2.5 1.4-6.6 3.7-9 4.7a28 28 0 0 1-6.3 2c-2 .3-4.7.4-7-1a12.4 12.4 0 0 1-6-9.3c-.4-3.5.2-7.4 1.3-11.3a132 132 0 0 1 12.4-27c1.7-3 5-8.8 7-11.9-1-7.5-1.8-11.9-2.3-18.6-.7-9.7-1.4-18.6-.5-25.9.8-7 2.3-13.6 6.2-17.9C32.5-1.4 43-1.8 50.7 3.3Zm-25 59-.8-11.8c-.7-9.4-.1-17.6.7-24a22 22 0 0 1 5-12.6c5-5.4 11-5.2 14.8-2.7 3.8 2.5 6 7.5 2.8 13.6-4 7.6-9.8 16.9-16 26.8l-1.5 2.3-5 8.4Zm-2.9 23a152 152 0 0 0-12.2 26 19 19 0 0 0-1 7.4c.3 1.3.7 1.9 1.2 2.3l.7-.1c1-.2 2.3-.6 4.1-1.4 2.9-1.2 7.7-4 11.3-6-1.5-8.8-2.8-19.6-4.1-28.3Zm11.3 35.1c1.5 9 2.8 19.7 4.1 28.4 5-9 10.4-19.8 12.2-26a19 19 0 0 0 1-7.5c-.3-1.3-.7-1.9-1.2-2.3l-.7.1c-1 .2-2.3.6-4.1 1.4-2.9 1.2-7.7 4-11.3 6Zm1.2 51.3-5 8.4-1.5 2.3c-6.2 10-12 19.2-16 26.8-3.2 6-1 11 2.8 13.6 3.8 2.5 10 2.7 15-2.7 1.9-2 4-5.9 4.8-12.5.8-6.5 1.4-14.7.7-24.1l-.8-11.8Z" clip-rule="evenodd" class="a"/></svg>