<svg width="100" height="100" viewBox="0 0 100 100" fill="none" xmlns="http://www.w3.org/2000/svg">
<mask id="mask0_625_2" style="mask-type:alpha" maskUnits="userSpaceOnUse" x="39" y="5" width="22" height="90">
<path fill-rule="evenodd" clip-rule="evenodd" d="M57.3773 6.13358C60.027 7.87512 61.3776 11.4011 59.4241 15.1174C57.7916 18.2229 55.4801 21.9476 53.0573 25.8174C52.8668 26.1217 52.6756 26.427 52.4838 26.733C51.1371 28.8827 49.3898 31.699 48.0839 33.8538C48.7073 38.6999 49.5151 43.5137 50.3404 48.7496C51.7192 47.9614 53.4726 46.9532 54.6979 46.422C55.4873 46.0798 56.2624 45.8091 56.9693 45.6923C57.6603 45.5782 58.4276 45.5877 59.0774 45.9809C60.1868 46.6523 60.7632 47.713 60.9389 48.9519C61.1092 50.1526 60.9112 51.5432 60.4963 53.0197C59.6651 55.9779 57.867 59.6039 55.7067 63.413C55.0051 64.6503 53.8835 66.5438 53.1155 67.8191C53.5018 70.8859 53.8119 73.1865 54.0027 75.8992C54.2689 79.6851 54.4316 83.089 54.1074 85.8742C53.7876 88.6215 53.2244 90.9418 51.8873 92.3863C48.9868 95.5196 45.2638 95.6023 42.6227 93.8664C39.973 92.1249 38.6224 88.5989 40.5759 84.8826C42.2084 81.7771 44.5199 78.0524 46.9427 74.1826C47.1332 73.8783 47.3245 73.573 47.5162 73.2669C48.863 71.1173 50.6102 68.301 51.9161 66.1462C51.2927 61.3001 50.4849 56.4863 49.6596 51.2504C48.2808 52.0386 46.5274 53.0468 45.3021 53.578C44.5127 53.9202 43.7376 54.1909 43.0307 54.3077C42.3397 54.4218 41.5724 54.4123 40.9226 54.019C39.8132 53.3477 39.2368 52.287 39.0611 51.0481C38.8908 49.8474 39.0888 48.4568 39.5037 46.9803C40.3349 44.0221 42.133 40.3961 44.2933 36.587C44.9949 35.3497 46.1165 33.4562 46.8845 32.1809C46.4982 29.1141 46.1881 26.8135 45.9973 24.1008C45.7312 20.3149 45.5684 16.911 45.8926 14.1257C46.2124 11.3785 46.7756 9.05819 48.1127 7.61372C51.0133 4.48035 54.7362 4.39769 57.3773 6.13358ZM47.716 30.8405C47.4657 28.6611 47.2628 25.9407 47.1241 23.9682C46.8613 20.2308 46.9583 16.9603 47.2628 14.3443C47.5717 11.6904 48.3319 9.88287 49.2443 8.89723C51.5105 6.44911 54.4608 6.47524 56.3425 7.71201C58.2156 8.94313 59.2372 11.419 57.7554 14.238C56.1622 17.2687 53.8909 20.9311 51.4596 24.8145C51.268 25.1205 51.0756 25.4277 50.8824 25.736C49.9581 27.2113 48.6411 29.3409 47.716 30.8405ZM47.2827 35.2032C46.9508 35.7702 46.2489 36.9623 45.933 37.5193C43.7823 41.3117 42.0839 44.7691 41.3189 47.4916C40.9357 48.8555 40.8106 49.9547 40.9281 50.7826C41.0401 51.5722 41.3623 52.0789 41.898 52.4032C41.9885 52.4579 42.2208 52.5278 42.7238 52.4447C43.2109 52.3643 43.8241 52.1613 44.5528 51.8454C45.8577 51.2797 47.7546 50.1709 49.3447 49.2545C48.6146 44.6269 47.8875 39.6174 47.2827 35.2032ZM50.6553 50.7455C51.3854 55.3731 52.1125 60.3826 52.7173 64.7968C53.0492 64.2297 53.7511 63.0377 54.067 62.4807C56.2177 58.6883 57.9161 55.2309 58.6811 52.5084C59.0643 51.1445 59.1894 50.0453 59.0719 49.2174C58.9599 48.4278 58.6377 47.921 58.102 47.5968C58.0115 47.542 57.7792 47.4722 57.2762 47.5553C56.7891 47.6357 56.1759 47.8387 55.4472 48.1546C54.1423 48.7203 52.2454 49.8291 50.6553 50.7455ZM52.284 69.1595C51.3589 70.6591 50.0419 72.7887 49.1176 74.264C48.9245 74.5723 48.732 74.8795 48.5404 75.1855C46.1091 79.0689 43.8378 82.7313 42.2446 85.762C40.7628 88.5809 41.7844 91.0569 43.6575 92.288C45.5392 93.5248 48.4895 93.5509 50.7557 91.1028C51.6681 90.1171 52.4283 88.3096 52.7372 85.6557C53.0418 83.0397 53.1387 79.7692 52.8759 76.0318C52.7372 74.0593 52.5343 71.3389 52.284 69.1595Z" fill="black"/>
</mask>
<g mask="url(#mask0_625_2)">
<path d="M41.4591 53.207C34.9162 49.2296 52.1263 26.9795 58.5409 14.7226C61.9567 8.19563 53.8234 2.73416 48.686 8.30855C39.739 18.0167 60.261 81.9833 51.314 91.6915C46.1766 97.2658 38.0433 91.8044 41.4591 85.2774C47.8737 73.0205 65.0838 50.7704 58.5409 46.793C55.5964 45.0031 44.4036 54.9969 41.4591 53.207Z" stroke="#EEEEEE" stroke-width="2.5"/>
</g>
</svg>
